<?xml version="1.0" standalone="no"?>
<!DOCTYPE svg PUBLIC "-//W3C//DTD SVG 20010904//EN"
 "http://www.w3.org/TR/2001/REC-SVG-20010904/DTD/svg10.dtd">
<svg version="1.0" xmlns="http://www.w3.org/2000/svg"
 width="79.000000pt" height="79.000000pt" viewBox="0 0 79.000000 79.000000"
 preserveAspectRatio="xMidYMid meet">
<metadata>
Created by potrace 1.11, written by Peter Selinger 2001-2013
</metadata>
<g transform="translate(0.000000,79.000000) scale(0.100000,-0.100000)"
fill="#000000" stroke="none">
<path d="M502 708 c-7 -7 -12 -22 -12 -35 l0 -22 25 24 c13 14 36 25 50 25 15
0 24 4 20 10 -9 14 -68 13 -83 -2z"/>
<path d="M160 685 c-11 -13 -8 -14 19 -9 25 5 37 2 56 -16 17 -16 25 -19 25
-9 -1 43 -72 67 -100 34z"/>
<path d="M453 574 c-3 -9 0 -20 8 -24 15 -10 39 6 39 26 0 19 -39 18 -47 -2z"/>
<path d="M101 556 c-9 -10 -8 -16 4 -26 19 -15 47 3 38 26 -7 18 -27 18 -42 0z"/>
<path d="M541 476 c-6 -7 -12 -31 -14 -52 -2 -33 1 -39 20 -42 38 -6 63 15 63
51 0 51 -41 77 -69 43z"/>
<path d="M608 297 c-33 -70 -121 -116 -222 -117 -85 0 -134 18 -188 70 -63 61
-62 43 1 -20 50 -50 119 -80 186 -80 47 0 126 26 164 54 41 30 83 91 79 113
-2 10 -9 3 -20 -20z"/>
<path d="M520 90 c-19 -11 -31 -19 -27 -20 11 0 67 29 67 35 0 7 -1 7 -40 -15z"/>
<path d="M430 60 c-23 -7 -23 -8 -3 -9 12 -1 25 4 28 9 3 6 5 10 3 9 -2 -1
-14 -5 -28 -9z"/>
</g>
</svg>
